<?xml version="1.0" standalone="no"?>
<!DOCTYPE svg PUBLIC "-//W3C//DTD SVG 20010904//EN"
 "http://www.w3.org/TR/2001/REC-SVG-20010904/DTD/svg10.dtd">
<svg version="1.0" xmlns="http://www.w3.org/2000/svg"
 width="87.000000pt" height="42.000000pt" viewBox="0 0 87.000000 42.000000"
 preserveAspectRatio="xMidYMid meet">

<g transform="translate(0.000000,42.000000) scale(0.100000,-0.100000)"
fill="#005A4E" stroke="none">
<path d="M377 342 c-53 -55 -25 -119 65 -153 57 -21 73 -41 42 -53 -28 -11
-64 -6 -89 10 -20 13 -28 14 -40 4 -23 -19 -18 -37 19 -59 68 -42 187 -16 202
44 15 60 -13 98 -91 120 -50 15 -72 35 -59 56 9 14 37 11 79 -11 47 -24 42
-24 55 -1 22 42 -22 71 -110 71 -38 0 -51 -5 -73 -28z"/>
<path d="M809 358 c-1 -7 -2 -33 -3 -58 -1 -40 -4 -45 -26 -48 -33 -5 -43 -16
-36 -40 4 -13 17 -22 34 -24 25 -3 27 -7 32 -63 5 -56 7 -60 30 -60 l25 0 3
153 3 152 -31 0 c-17 0 -30 -5 -31 -12z"/>
<path d="M142 335 c-11 -24 -10 -25 18 -25 34 0 38 10 12 34 -18 15 -19 15
-30 -9z"/>
<path d="M620 340 c0 -15 7 -20 25 -20 18 0 25 5 25 20 0 15 -7 20 -25 20 -18
0 -25 -5 -25 -20z"/>
<path d="M130 235 c0 -31 3 -35 25 -35 22 0 25 4 25 35 0 31 -3 35 -25 35 -22
0 -25 -4 -25 -35z"/>
<path d="M613 224 c-8 -21 10 -36 38 -32 15 2 23 10 24 26 1 18 -3 22 -27 22
-17 0 -31 -6 -35 -16z"/>
<path d="M96 205 c-3 -8 -1 -15 4 -15 6 0 10 7 10 15 0 8 -2 15 -4 15 -2 0 -6
-7 -10 -15z"/>
<path d="M210 200 c0 -5 5 -10 11 -10 5 0 7 5 4 10 -3 6 -8 10 -11 10 -2 0 -4
-4 -4 -10z"/>
<path d="M60 157 l-25 -11 29 -4 c22 -3 26 -6 15 -13 -11 -7 -9 -9 9 -9 17 0
22 6 22 25 0 27 -11 30 -50 12z"/>
<path d="M210 145 c0 -19 5 -25 23 -24 21 0 21 1 2 9 -16 7 -14 9 15 10 l35 1
-25 14 c-37 21 -50 18 -50 -10z"/>
<path d="M620 105 c0 -20 5 -25 25 -25 20 0 25 5 25 25 0 20 -5 25 -25 25 -20
0 -25 -5 -25 -25z"/>
<path d="M143 103 c9 -2 25 -2 35 0 9 3 1 5 -18 5 -19 0 -27 -2 -17 -5z"/>
</g>
</svg>
